<?xml version="1.0" encoding="UTF-8"?>
<svg width="120px" height="30px" viewBox="0 0 120 30" version="1.1" xmlns="http://www.w3.org/2000/svg" xmlns:xlink="http://www.w3.org/1999/xlink">
    <!-- Generator: Sketch 48.1 (47250) - http://www.bohemiancoding.com/sketch -->
    <title>logo-unicef</title>
    <desc>Created with Sketch.</desc>
    <defs></defs>
    <g id="EVS_Thanks_share" stroke="none" stroke-width="1" fill="none" fill-rule="evenodd" transform="translate(-581.000000, -617.000000)">
        <g id="Group-4" transform="translate(581.000000, 617.000000)" fill="#FFFFFF">
            <g id="Page-1">
                <path d="M35.4780484,2.97309107 L35.4780484,1.1487848 L37.3572685,1.1487848 L39.2362549,1.1487848 L39.2362549,2.97309107 L39.2362549,4.79739734 L37.3572685,4.79739734 L35.4780484,4.79739734 L35.4780484,2.97309107 Z M117.588889,7.56388407 C116.82547,6.88084997 116.101076,5.41500224 115.779772,3.90241937 C115.566192,2.89784749 115.572268,2.89317397 116.21768,3.5596171 C116.850707,4.21390909 117.475323,5.13248831 117.69895,5.73747472 C117.862991,6.18122489 117.946179,7.15985877 117.851774,7.52930007 L117.795225,7.74872156 L117.588889,7.56388407 Z M88.9154772,7.45919735 C88.8364948,6.9152003 88.9124394,6.1830943 89.0975106,5.70756423 C89.3830623,4.97335515 89.6807652,4.53007232 90.4205824,3.73697696 L91.1332934,2.97309107 L91.0926338,3.31729539 C91.0274383,3.86970477 90.7425876,4.9256853 90.5019016,5.5077715 C90.1784944,6.28871572 89.8966815,6.74835584 89.4017564,7.3019336 L88.9638481,7.79218524 L88.9154772,7.45919735 Z M117.049332,9.89900545 C116.290587,9.09445998 115.245122,7.25239435 114.899983,6.11229056 C114.813055,5.82440208 114.751365,5.57880891 114.763282,5.56595675 C114.805811,5.52015631 115.768789,6.23824177 116.139165,6.59155944 C116.611423,7.04231989 117.060314,7.69287306 117.268987,8.22892514 C117.46691,8.73763717 117.604545,9.76277251 117.519721,10.095293 L117.458732,10.3334086 L117.049332,9.89900545 Z M89.2496335,10.0583723 C89.1573316,9.54451939 89.3468426,8.64393321 89.6961877,7.93519478 C90.030344,7.25753522 90.6671103,6.56772452 91.4746936,6.00830487 C91.7934272,5.78748132 92.0689309,5.62157157 92.0864566,5.64026562 C92.1551572,5.71200407 91.6938814,6.87827954 91.314392,7.59145781 C90.7042648,8.73857187 89.9859456,9.74898564 89.5132197,10.1254372 L89.2933308,10.3004603 L89.2496335,10.0583723 Z M88.2263675,12.1460311 C87.5540825,11.1966067 87.272737,9.8686276 87.4269629,8.37286938 C87.5036086,7.630949 87.7543426,6.5207557 87.9200187,6.1908056 C88.0111522,6.00947325 88.0139563,6.01391309 88.1805671,6.56421938 C88.5086478,7.64894203 88.685774,9.07506489 88.685774,10.6308778 C88.685774,11.5291272 88.5836577,12.4388267 88.4824761,12.4388267 C88.4556034,12.4388267 88.3404013,12.3070336 88.2263675,12.1460311 Z M118.159759,12.0023205 C118.098769,11.6296078 118.084749,11.084676 118.111855,10.1170249 C118.160226,8.37497246 118.349036,7.10003779 118.676649,6.30039951 L118.798862,6.00199562 L118.998654,6.65605394 C119.440769,8.10367496 119.507133,9.71393428 119.169705,10.8208561 C119.034874,11.2636716 118.668003,11.9948429 118.430822,12.2932468 L118.245518,12.5262215 L118.159759,12.0023205 Z M117.204726,14.4769463 C116.467713,13.2791246 115.713408,10.8365124 115.721353,9.67420941 L115.724624,9.23770319 L116.232401,9.79805754 C116.821264,10.4474423 117.301468,11.2405377 117.544023,11.9642314 C117.827238,12.8094364 117.825135,13.9757119 117.538649,14.6762717 L117.454292,14.8826073 L117.204726,14.4769463 Z M89.262953,14.8071301 C89.2421558,14.7723124 89.1783624,14.5535919 89.1206445,14.3213183 C88.9874493,13.7854999 88.9858136,12.8631818 89.1171393,12.332738 C89.3388976,11.4354232 89.9469218,10.3850509 90.6692134,9.65060817 L91.0758091,9.23770319 L91.0356169,9.85717749 C90.961308,11.0033569 90.5175579,12.5386063 89.8719119,13.8843447 C89.5344842,14.5879423 89.322774,14.9085453 89.262953,14.8071301 Z M117.49869,16.7844939 C117.49869,16.4288395 117.756668,15.3866458 118.055072,14.538403 C118.56799,13.0795655 119.773056,10.7832343 119.961866,10.9049794 C120.053467,10.9640993 119.966072,12.9587552 119.847365,13.5226147 C119.635654,14.5281213 119.20686,15.4485699 118.642299,16.1094048 C118.410493,16.3804686 117.633755,17.0511179 117.551501,17.0511179 C117.522525,17.0511179 117.49869,16.9310086 117.49869,16.7844939 Z M88.7848525,16.742666 C88.2282369,16.3103659 87.7358822,15.6743006 87.3977535,14.9515417 C86.9682575,14.0327288 86.8343613,13.3831103 86.7925334,12.0086298 C86.7726709,11.3643858 86.7824853,10.8559075 86.8147326,10.8563748 C87.0456042,10.860581 88.2343125,13.1569122 88.7154508,14.5285886 C89.1393385,15.73529 89.4078319,17.0529873 89.229771,17.0504169 C89.2026646,17.0501832 89.0024046,16.9113798 88.7848525,16.742666 Z M115.934932,18.5922092 C115.616666,17.8129007 115.425052,16.1194529 115.470385,14.4881627 C115.487677,13.8605098 115.540254,13.2253792 115.590027,13.0435795 L115.67859,12.7187702 L115.867166,13.0092292 C116.735973,14.3472563 117.123407,15.9196601 116.879449,17.1177155 C116.771725,17.6453552 116.431259,18.4732683 116.201556,18.7641945 L116.071866,18.9284686 L115.934932,18.5922092 Z M90.4289948,18.5291168 C90.2911261,18.3040871 90.1032508,17.9026322 90.0111826,17.6371766 C89.865369,17.2156256 89.8443381,17.045276 89.8459739,16.2940086 C89.8478433,15.5083909 89.8665373,15.3765978 90.0609555,14.7793227 C90.2600472,14.1675596 90.7418866,13.1856543 90.985143,12.8963638 C91.0872593,12.7748524 91.0966063,12.7830311 91.1807295,13.0683491 C91.4875457,14.1091407 91.2447567,17.7885985 90.8112882,18.6711916 L90.6797288,18.9385166 L90.4289948,18.5291168 Z M115.120806,21.4521662 C115.453794,20.5370922 116.630351,18.9029979 117.919774,17.5647371 C118.712635,16.7414976 119.499422,16.0881403 119.587284,16.1799749 C119.657386,16.253349 119.276261,17.4726689 119.008469,18.0316212 C118.437599,19.2238347 117.589824,20.3099594 116.729897,20.9509318 C116.321899,21.2551776 115.512447,21.6757939 115.174318,21.7592161 L114.992752,21.8038482 L115.120806,21.4521662 Z M91.098242,21.5617602 C90.4053935,21.2458306 89.9399115,20.9163478 89.359461,20.3305228 C88.5722076,19.5357917 88.0190972,18.697597 87.5865634,17.6430185 C87.3617674,17.0950489 87.1332326,16.2400295 87.1942219,16.1764697 C87.2596511,16.1080027 88.0842927,16.7601917 88.6441797,17.3235838 C89.9558015,18.6419821 91.2809764,20.4732987 91.6728506,21.5087158 C91.8104856,21.8716141 91.7833792,21.8739509 91.098242,21.5617602 Z M113.056281,22.4247245 C112.903457,21.4259946 113.966448,17.7021384 114.686637,16.7139239 L114.856986,16.4797808 L114.929659,16.6793399 C115.222922,17.4838853 115.334853,18.9700628 115.165905,19.8047525 C114.995089,20.645985 114.662568,21.2673288 114.041692,21.9045624 C113.746559,22.2074061 113.413338,22.5090815 113.301407,22.5745107 L113.097642,22.693919 L113.056281,22.4247245 Z M93.3174602,22.4537003 C92.7809408,22.0765477 92.2769023,21.4900217 91.994622,20.9142448 C91.6153664,20.1400771 91.5541433,19.8369997 91.5541433,18.7377892 C91.5541433,17.950302 91.5824181,17.6572727 91.7097713,17.1371106 C91.7952967,16.7868307 91.8850281,16.5003443 91.9083957,16.5003443 C91.9324643,16.5003443 92.0488348,16.6550376 92.1673084,16.8440812 C92.8194973,17.8846392 93.7034925,20.9156468 93.7076987,22.1281901 C93.708867,22.4078999 93.6976506,22.6492869 93.6833964,22.6644758 C93.6684411,22.6796647 93.5039334,22.5850261 93.3174602,22.4537003 Z M106.81527,1.30838531 C106.932342,1.15275728 106.939352,1.11396711 106.859201,1.0669983 C106.611271,0.922353032 104.707749,0.481406967 104.707749,0.568801683 C104.707749,0.578148711 104.994235,0.745694195 105.344282,0.941047089 C105.694562,1.13639998 106.085034,1.36984202 106.21192,1.46004084 C106.471767,1.64441098 106.582997,1.61660357 106.81527,1.30838531 Z M100.57496,1.43363549 C100.726616,1.32544363 101.087645,1.10625582 101.378104,0.946888982 C102.020712,0.593571308 102.111145,0.512953188 101.804562,0.566932277 C101.270613,0.660869912 100.558136,0.830051127 100.166495,0.955768659 L99.7461127,1.09083322 L99.9984825,1.36072866 C100.137286,1.50911274 100.261835,1.63062411 100.275155,1.63062411 C100.288474,1.63062411 100.423539,1.54206102 100.57496,1.43363549 Z M105.638012,2.24075139 C105.851592,2.12181045 106.026381,1.9972613 106.026381,1.96384567 C106.026381,1.82854744 104.353263,0.876085242 104.269607,0.963713633 C104.250212,0.98404342 104.433414,1.28945757 104.67667,1.64254157 C104.919927,1.99562557 105.133506,2.32347259 105.151032,2.37067509 C105.194729,2.48704559 105.196131,2.48657824 105.638012,2.24075139 Z M101.82349,1.99212043 C101.988231,1.73647921 102.217467,1.39578002 102.333136,1.23477746 C102.448806,1.07400857 102.510263,0.942215468 102.469837,0.942215468 C102.247144,0.942215468 100.664692,1.8836949 100.722877,1.98160503 C100.762836,2.04913731 101.413623,2.45503202 101.483725,2.4562004 C101.505691,2.45643407 101.658281,2.24776166 101.82349,1.99212043 Z M104.39439,2.72095498 C104.566609,2.68169746 104.707749,2.61883869 104.707749,2.58168425 C104.707749,2.49101808 104.099258,1.57594399 103.816977,1.24248876 L103.592181,0.976799473 L103.589611,1.92645756 L103.586807,2.87588197 L103.834036,2.83428769 C103.970035,2.81138747 104.222405,2.76044617 104.39439,2.72095498 Z M103.125297,1.97482843 C103.125297,1.48270739 103.101229,1.07985046 103.072019,1.07985046 C103.042342,1.07985046 102.947003,1.18056469 102.859374,1.30371179 C102.373562,1.98884897 102.004355,2.54686657 102.004355,2.59687317 C102.004355,2.6457114 102.161385,2.68964243 102.828763,2.82681007 C103.132541,2.88920149 103.125297,2.91046598 103.125297,1.97482843 Z M109.351586,3.29883501 C109.639008,3.08175027 109.886003,2.86630127 109.900257,2.82003348 C109.934841,2.70740178 108.748703,1.90215529 108.030851,1.55094069 L107.456944,1.27006249 L107.166485,1.60047994 L106.876026,1.9308974 L107.093344,2.10778991 C107.563033,2.49031705 108.32318,3.22078732 108.492361,3.45212627 C108.590271,3.58625613 108.70594,3.69538269 108.749638,3.69444798 C108.792868,3.69374696 109.063698,3.51568607 109.351586,3.29883501 Z M106.931407,4.62237423 C107.643183,4.34313176 108.268032,4.02603382 108.268266,3.94377997 C108.268733,3.84773925 107.353659,2.93032841 106.864109,2.53635116 L106.492564,2.23724625 L106.308895,2.37254449 C106.207947,2.44685337 105.991797,2.57747809 105.828691,2.66276972 C105.665352,2.74806136 105.519772,2.82914683 105.505518,2.84270002 C105.467896,2.87821873 106.378998,4.7843115 106.436949,4.79155544 C106.463355,4.7948269 106.685814,4.71864862 106.931407,4.62237423 Z M105.242165,5.10164311 C105.54571,5.04158845 105.832664,4.96985001 105.879633,4.94227628 C105.944127,4.90488816 105.865145,4.68733608 105.564404,4.07370366 C105.073452,3.07216957 105.060366,3.05464389 104.844449,3.11469855 C104.751213,3.14063655 104.437153,3.19835445 104.147161,3.24275284 L103.619521,3.32383831 L103.601295,4.31181921 L103.583068,5.30003379 L104.136646,5.25540173 C104.440891,5.23109946 104.938387,5.16193145 105.242165,5.10164311 Z M111.848178,5.46313944 L112.230705,5.20773188 L111.933236,4.81328729 C111.769195,4.59620255 111.352084,4.12487864 111.00601,3.7654854 C110.531649,3.27336435 110.354756,3.12895277 110.287458,3.18036142 C109.76379,3.57924586 109.206708,3.99238452 109.134735,4.03514717 C109.066969,4.07533939 109.148289,4.24452061 109.471228,4.73547327 C109.705371,5.09136138 110.008449,5.5923621 110.144214,5.84917171 L110.391443,6.3158221 L110.928664,6.01718455 C111.223796,5.8531442 111.63787,5.60381221 111.848178,5.46313944 Z M99.3341424,20.9593442 C99.5879142,20.8628361 100.107843,20.6581362 100.489201,20.5048449 C101.436756,20.1246545 102.233357,19.8909788 102.867085,19.8082576 C103.510395,19.7239007 103.700373,19.6358049 103.897595,19.3301571 C104.074722,19.0551208 104.088041,18.7616241 103.943863,18.3178739 C103.886379,18.1412151 103.801087,17.6343725 103.754586,17.191557 C103.707851,16.7487415 103.61882,16.2743799 103.556663,16.1374459 C103.433282,15.8659147 103.054493,15.4787141 102.41282,14.9674316 C101.858541,14.5255508 101.726281,14.2956139 101.759229,13.8313003 C101.779091,13.5464496 101.825827,13.4237699 101.975379,13.2604305 C102.119791,13.1031668 102.174471,12.9657655 102.200642,12.6942343 C102.231254,12.3757343 102.253687,12.3329716 102.399968,12.3117072 C102.667293,12.2731507 102.729684,12.1717354 102.729684,11.7763561 C102.729684,11.4323855 102.740901,11.4062138 102.886481,11.4062138 C103.136981,11.4062138 103.233723,11.2335274 103.130204,10.9704086 C102.895828,10.3750029 102.977147,10.1677325 103.446368,10.1658631 C103.863245,10.1642274 104.574087,9.99971968 104.882071,9.83357625 C105.021809,9.75809899 105.4478,9.37627288 105.828691,8.98486607 C106.835133,7.95015002 107.524943,7.622303 108.699398,7.62066727 C109.389909,7.61973257 109.882731,7.73750513 110.460611,8.04128355 C111.984411,8.84232388 113.04156,10.1392241 113.415441,11.6660612 C113.5921,12.3871844 113.589996,13.5980919 113.410767,14.3381429 C113.178727,15.297148 112.880791,15.8306297 112.165509,16.5692786 C111.16234,17.6046957 110.34611,18.0157312 109.229841,18.0479785 C108.496801,18.0690093 108.44142,18.1227547 108.483248,18.7721395 C108.528581,19.4769055 108.938681,20.1419465 109.637839,20.6441156 C109.984147,20.8927466 109.967556,20.9009252 110.827482,20.0463732 C113.255607,17.6341388 114.504837,14.2540197 114.213677,10.88722 C114.073939,9.26948308 113.587893,7.62697651 112.835925,6.23099782 C112.677727,5.93750113 112.524202,5.68139255 112.494758,5.66246482 C112.465315,5.64330341 112.2959,5.72392153 112.118307,5.84169409 C111.940713,5.95923297 111.528276,6.20996701 111.202298,6.39830963 C110.875619,6.58665225 110.600817,6.74812217 110.591236,6.75676817 C110.581655,6.76541417 110.647318,6.94557814 110.736816,7.15705466 L110.899922,7.54168488 L110.622315,7.41316324 C110.469725,7.34259317 110.299375,7.20799597 110.24376,7.11429201 C110.165713,6.98273258 110.117342,6.95866398 110.031349,7.00890426 C109.957975,7.05143324 109.76566,7.04161886 109.473565,6.97992847 C109.104358,6.90188078 109.057856,6.87804586 109.202034,6.8401904 C109.298075,6.81495342 109.515159,6.73246589 109.684574,6.65652129 L109.992325,6.5188863 L109.778278,6.12280597 C109.504878,5.6164307 108.817404,4.55787973 108.690752,4.44805215 C108.611535,4.37958517 108.485351,4.41673961 108.0187,4.64620915 C107.702537,4.8016035 107.265797,4.99648904 107.048245,5.07897657 C106.830693,5.16169777 106.64235,5.23857708 106.629264,5.24979351 C106.616646,5.26124362 106.745635,5.70826526 106.916452,6.24314896 C107.087035,6.77803266 107.214155,7.22855943 107.198732,7.24491673 C107.183076,7.26104035 107.083764,7.2923529 106.977441,7.31455209 L106.784191,7.35497799 L106.482282,6.40321682 C106.132937,5.30237055 106.269871,5.38672748 105.13631,5.57577113 C104.773646,5.63629314 104.276617,5.70522747 104.031725,5.72906239 L103.586807,5.77205873 L103.586807,6.90538592 L103.586807,8.03871312 L104.097855,7.99688516 C104.378734,7.97375127 104.882071,7.92584775 105.215994,7.89056272 C105.55015,7.85527768 105.88898,7.82653557 105.969364,7.82653557 L106.115178,7.82653557 L105.955577,8.00483014 C105.692692,8.29785948 105.574219,8.33267716 104.575722,8.40815441 L103.619521,8.48036021 L103.599893,8.87620686 L103.580264,9.27205352 L103.352897,9.27205352 L103.125297,9.27205352 L103.125297,7.52626228 L103.125297,5.78047105 L102.779223,5.73700737 C102.588778,5.71317245 102.339446,5.69331001 102.225178,5.69284266 C102.0581,5.69237531 101.991035,5.64540649 101.881675,5.45215668 L101.746143,5.21217172 L102.43572,5.25610276 L103.125297,5.30003379 L103.125297,4.32373667 C103.125297,3.60121138 103.103799,3.34113031 103.043043,3.32360463 C102.997477,3.31051879 102.752584,3.26448468 102.499046,3.221021 C102.245041,3.17755731 101.958554,3.12427925 101.86228,3.10254741 C101.698473,3.06539297 101.665992,3.10348211 101.3524,3.70636545 C101.168029,4.06038415 101.007962,4.37911782 100.99581,4.41440285 C100.974079,4.47889734 100.625902,4.2503625 100.621929,4.16904335 C100.620527,4.14544211 100.766575,3.85101071 100.946271,3.51498504 C101.180181,3.07731043 101.250283,2.88920149 101.1935,2.85111235 C101.149803,2.82166921 100.912154,2.67235043 100.665159,2.51905916 L100.215801,2.24051771 L99.5963266,2.76628806 C98.9803574,3.28878695 98.9745155,3.29159106 98.6983108,3.23457419 L98.4197694,3.17708996 L99.1243016,2.55925138 C99.511736,2.21925322 99.82159,1.92155037 99.8122429,1.89748177 C99.8031296,1.87341317 99.6820856,1.72339337 99.5432822,1.56402653 L99.2909124,1.27403498 L98.9497459,1.42475581 C97.6743439,1.9876806 96.1503109,3.15325504 95.1948109,4.29663029 C93.7308326,6.04873077 92.7325699,8.38992771 92.5449283,10.5112358 C92.5231965,10.7572963 92.4911829,11.0748616 92.4738909,11.2169365 C92.4558979,11.3643858 92.4706195,11.4751481 92.5082412,11.4751481 C92.544461,11.4751481 92.7877174,11.3024618 93.0492005,11.0919199 C93.3102163,10.8809108 93.7336367,10.5825069 93.9895116,10.4285146 C94.9868395,9.82820171 95.0669903,9.62957735 94.8176583,8.37707554 C94.6718446,7.64403484 94.6496455,6.84392921 94.7592394,6.29806275 C94.9826333,5.19043988 95.7806359,4.2830771 96.8690974,3.89938158 C97.2238171,3.77459875 97.3995412,3.75567102 97.9823284,3.77973962 C98.5583391,3.80334087 98.7595338,3.84353309 99.1785144,4.01715414 C100.202949,4.44197658 101.184854,5.28601325 101.608742,6.10621499 C101.823723,6.52215776 101.839613,6.59529825 101.839613,7.17247726 C101.839613,7.86392368 101.720205,8.21864341 101.247946,8.93345741 C101.003989,9.30243136 101.001652,9.31177839 101.043714,9.80249738 L101.086477,10.2985909 L100.885983,10.4065491 C100.732224,10.4897376 100.685956,10.5614761 100.685956,10.7161694 C100.685956,10.826698 100.644128,10.9421338 100.593187,10.9725117 C100.542246,11.0026558 100.49037,11.1050058 100.477751,11.1996444 C100.462329,11.3164823 100.407415,11.3788737 100.306467,11.393829 C100.224681,11.4057464 100.082138,11.5197802 99.9893691,11.6466661 C99.6872264,12.0600384 99.3353108,12.110746 98.3957008,11.875902 C97.8171197,11.7312567 97.7752918,11.729621 97.556805,11.8382802 C97.2446142,11.9939082 97.2182089,12.1675292 97.3782767,13.0059577 C97.5462896,13.8822416 97.7848725,15.6490637 97.7848725,16.0147661 C97.7848725,16.6947625 98.0839774,16.8847408 99.3670907,17.0191043 L100.289876,17.1156124 L100.667963,16.8394077 C100.994408,16.6005911 101.086477,16.5657735 101.343754,16.5832991 C101.611079,16.6015258 101.639587,16.6197526 101.621127,16.7597243 C101.60103,16.9095104 101.614116,16.9141839 101.952946,16.8725897 C102.23289,16.8380057 102.323789,16.8522599 102.393892,16.940122 C102.528256,17.1093032 102.453012,17.7283101 102.243872,18.1750981 C101.945001,18.8120981 101.48466,19.0046469 100.731056,18.8074246 C100.334274,18.7034389 100.24945,18.7025042 99.7818651,18.7973765 C98.7057884,19.0158633 98.2592342,19.0735812 97.644667,19.0735812 C97.0962301,19.0735812 96.963736,19.0497463 96.6681362,18.897156 L96.3262687,18.7204972 L96.2234514,18.8847712 C96.059411,19.145787 95.9446762,19.5399979 95.9414048,19.8524223 C95.9386007,20.1335342 95.9535559,20.1536303 96.5019928,20.6097653 C96.8120805,20.8675096 97.1308141,21.1004843 97.2109649,21.1271233 C97.2906483,21.153996 97.6974777,21.1668482 98.1143552,21.1558654 C98.7310254,21.1392745 98.9588592,21.1025874 99.3341424,20.9593442 Z M101.604068,23.4893511 C97.0011241,22.7102763 93.3599892,19.1602749 92.3177955,14.4351183 C92.0951026,13.4256393 92.0268693,12.5731903 92.0700993,11.3445234 C92.1352948,9.48539944 92.44141,8.22869147 93.2380105,6.55276927 C93.4899129,6.02279276 93.8965086,5.29536028 94.1416345,4.93643438 C94.6914734,4.13025318 95.851206,2.89738014 96.5980335,2.32487465 C99.2941839,0.257078285 102.61752,-0.468017444 105.891784,0.297270507 C106.887476,0.529777839 107.399927,0.723728679 108.432774,1.25814503 C111.547437,2.8698064 113.717116,5.82089695 114.476328,9.47862284 C114.608823,10.1153892 114.626582,10.3936969 114.626582,11.8193524 C114.626582,13.5962225 114.549002,14.1741026 114.131189,15.5023153 C113.858256,16.3704206 113.09881,17.9283365 112.570703,18.7034389 C111.99773,19.5446714 110.781682,20.8130632 109.982511,21.403328 C108.723466,22.33289 107.16999,23.047003 105.663716,23.3884032 C104.811034,23.5814193 102.489466,23.6393709 101.604068,23.4893511 Z M108.677432,24.7124098 C108.498904,24.6766574 108.521804,24.5436959 108.780249,24.1071897 C109.241292,23.3292832 112.615569,20.1907848 112.792228,20.3753886 C112.857423,20.4429208 112.681465,21.3888401 112.482374,22.0426648 C112.133963,23.1888441 111.55398,23.969321 110.740555,24.3864321 C110.150056,24.6892759 109.26279,24.8294813 108.677432,24.7124098 Z M96.894568,24.6853034 C95.9215423,24.5392561 95.0709628,23.8443045 94.5853846,22.7995404 C94.2042596,21.979105 93.8210314,20.3555261 94.0082056,20.3555261 C94.0437243,20.3555261 94.2774,20.516295 94.5276667,20.7125826 C95.9844011,21.8554905 97.7762265,23.6597007 98.0701905,24.2794087 L98.2501208,24.6579633 L98.0998673,24.7030627 C97.8937653,24.7642858 97.3696307,24.7565745 96.894568,24.6853034 Z M112.388903,25.0598855 C112.280244,25.0467997 112.034885,25.0185249 111.843972,24.9970268 L111.496963,24.9580029 L111.610997,24.7563408 C111.764522,24.4850433 112.390773,23.9637128 113.220789,23.4157432 C114.00851,22.8958148 116.044059,21.8183361 116.569362,21.6428456 C117.041153,21.4855819 117.432794,21.4229568 117.432794,21.504977 C117.432794,21.6176086 116.669375,22.7789769 116.300868,23.2269333 C115.592364,24.0880283 114.524699,24.7909248 113.674587,24.9558998 C113.219153,25.0444629 112.646881,25.0904971 112.388903,25.0598855 Z M93.5649228,25.0327792 C92.9463832,24.960106 92.6073197,24.8521478 92.0467317,24.5488368 C91.1342281,24.0548463 90.5381213,23.4468221 89.7265656,22.1817018 C89.3024442,21.5201659 89.290293,21.4904891 89.4417149,21.4701593 C89.6954867,21.4358089 90.7180516,21.8283841 91.6646719,22.3237766 C93.2567045,23.1565969 94.4729866,23.9828742 95.0214235,24.6039842 L95.3079099,24.9283261 L95.0793751,24.9743602 C94.6627313,25.0582498 93.9995596,25.0839541 93.5649228,25.0327792 Z M76.1425292,18.9616505 L76.1257045,11.3029291 L74.6916367,11.2844687 L73.2578026,11.2657747 L73.2578026,10.1326812 L73.2578026,8.99935396 L74.6916367,8.9806599 L76.1257045,8.96219952 L76.1630927,6.55276927 C76.2046869,3.88442634 76.2229136,3.74795972 76.6626913,2.80764866 C76.9456726,2.20266225 77.6459987,1.42498949 78.2040163,1.09597409 C78.4040427,0.977967851 78.8344734,0.78845685 79.1599836,0.675124131 C80.4421623,0.228102497 81.8000518,0.215250333 83.5266816,0.633529854 C83.6745984,0.669282238 83.6750657,0.675124131 83.6750657,2.04913731 L83.6750657,3.42899238 L83.3619403,3.37735005 C83.1897213,3.34907528 82.6183842,3.32500669 82.0926138,3.32360463 C80.901335,3.32080052 80.340747,3.46988563 79.8811069,3.91246742 C79.359309,4.41463652 79.3235566,4.61139147 79.3235566,6.96847836 L79.3235566,8.99678353 L81.2684396,8.99678353 L83.2133225,8.99678353 L83.2133225,10.1326812 L83.2133225,11.2685788 L81.2684396,11.2685788 L79.3235566,11.2685788 L79.3235566,18.9443585 L79.3235566,26.6201383 L77.7413384,26.6201383 L76.1593538,26.6201383 L76.1425292,18.9616505 Z M35.7416346,17.7738769 L35.7416346,8.92784919 L37.3572685,8.92784919 L38.972435,8.92784919 L38.972435,17.7738769 L38.972435,26.6201383 L37.3572685,26.6201383 L35.7416346,26.6201383 L35.7416346,17.7738769 Z M17.9399853,17.8084609 L17.9399853,8.92784919 L19.4892553,8.92784919 L21.0387589,8.92784919 L21.0387589,10.2359658 C21.0387589,10.9552197 21.0639959,11.5438488 21.0953084,11.5438488 C21.1263873,11.5438488 21.2593488,11.3618154 21.3909082,11.1395898 C22.066932,9.99551351 23.1974551,9.13932571 24.6462445,8.67361002 C25.1801935,8.50185837 25.3157254,8.4871368 26.3791836,8.48480005 C27.2617767,8.48316432 27.6648674,8.51260746 28.0936623,8.60981655 C30.6647961,9.1933048 32.2145334,10.7364992 32.6106138,13.1073729 C32.6931013,13.600896 32.7089912,14.7447387 32.7089912,20.1924205 L32.7089912,26.6888389 L31.1265393,26.6888389 L29.5440874,26.6888389 L29.5436201,20.8546575 C29.5433864,14.5372346 29.5265617,14.1811128 29.1870309,13.2398671 C28.6565871,11.7674764 27.4498857,10.9930751 25.6870361,10.9930751 C24.3445692,10.9930751 23.4152409,11.3973341 22.4506275,12.4007376 C21.9367747,12.935154 21.8227409,13.0973249 21.6484188,13.5401404 C21.161205,14.7788553 21.1079269,15.5841018 21.1062912,21.7496354 L21.1046555,26.6888389 L19.5222035,26.6888389 L17.9399853,26.6888389 L17.9399853,17.8084609 Z M69.1182373,15.4677313 C69.0787461,14.0850721 68.6286867,12.8454225 67.8837286,12.0672824 C66.4650833,10.5862457 63.907269,10.4497791 62.312666,11.7700469 C61.3536608,12.5640769 60.704276,13.9883304 60.6180497,15.4854907 L60.5792595,16.1573083 L64.8578618,16.139549 L69.1366977,16.1217896 L69.1182373,15.4677313 Z M63.0709436,26.967614 C59.9256686,26.3792186 58.0081257,24.1441104 57.3986994,20.3555261 C57.2519511,19.4446582 57.1996077,17.4633219 57.2963495,16.4952034 C57.5477845,13.9799181 58.35233,12.0102655 59.7006389,10.6091459 C60.3243193,9.96116318 60.859203,9.56788696 61.6319686,9.18979967 C63.9126435,8.07399815 67.2182201,8.27566029 69.3561192,9.66112357 C70.0291053,10.0973961 70.8401937,10.9531166 71.2654834,11.6763429 C72.1361591,13.1566785 72.4654082,14.6351447 72.4661092,17.0679426 L72.4663429,18.4272342 L66.5160246,18.4449935 L60.5654727,18.4625192 L60.5444419,18.9787088 C60.5327581,19.2626248 60.557995,19.7890962 60.6007577,20.1484895 C60.9727694,23.2902594 62.7641274,24.9654805 65.4614461,24.6932483 C67.30912,24.5067751 68.3094857,23.6727865 68.7709952,21.9342392 C68.8453041,21.6542957 68.9060598,21.3549571 68.9060598,21.2689645 L68.9060598,21.1128691 L70.5873565,21.1128691 L72.2684196,21.1128691 L72.2684196,21.2720023 C72.2684196,21.3591633 72.2064955,21.687244 72.1307846,22.0008368 C71.5571107,24.3679718 70.0057377,26.0195917 67.7002931,26.7171137 C66.3966163,27.1115583 64.4148126,27.2188154 63.0709436,26.967614 Z M47.7086351,27.0587476 C45.0739414,26.648413 43.4125071,25.4318973 42.3614338,23.143511 C41.7837874,21.8863357 41.5066481,20.6396758 41.4218238,18.9184205 C41.1904848,14.2343909 42.6570336,10.8330073 45.5658288,9.30710487 C46.6879396,8.71824208 47.6862022,8.49040826 49.1590602,8.48596843 C50.8380202,8.48106124 51.9767219,8.82456453 53.2000143,9.70435358 C54.5205157,10.654479 55.4334867,12.3535351 55.5666819,14.108206 L55.6071078,14.6416877 L54.0150752,14.6416877 L52.4228089,14.6416877 L52.4228089,14.4316132 C52.4228089,13.660016 51.9468114,12.4264419 51.4280514,11.8537028 C50.462737,10.7879078 48.6344582,10.550727 47.173284,11.3012934 C46.6493831,11.5704878 45.9824726,12.2427728 45.6810309,12.8059313 C44.9916876,14.0934844 44.6449128,16.1453909 44.7304382,18.4279352 C44.8246095,20.9364439 45.3321531,22.5934384 46.3229381,23.625584 C47.0475665,24.3805902 47.8497752,24.7103067 48.9613706,24.7103067 C50.764646,24.7103067 51.9891067,23.6751233 52.4235099,21.7835184 C52.4952483,21.4713277 52.5541346,21.1154395 52.5543683,20.9922924 L52.554602,20.7686648 L54.1580847,20.7686648 L55.7618011,20.7686648 L55.7087567,21.2299406 C55.4250744,23.6905459 53.9688074,25.692212 51.8199255,26.5762072 C50.9200404,26.9463495 50.3699677,27.0456617 49.0931637,27.0683283 C48.4405074,27.0800121 47.817528,27.0755722 47.7086351,27.0587476 Z M4.2916881,27.0685619 C2.49308615,26.6507498 1.11253006,25.3781519 0.472959638,23.5489384 C0.0303778423,22.2821824 0.0502402777,22.6387715 0.0238349225,15.4504393 L0,8.92784919 L1.61563386,8.92784919 L3.2315014,8.92784919 L3.25206486,15.106235 L3.27239465,21.2850881 L3.44858613,21.9562047 C3.96056961,23.9064622 5.02098999,24.7614817 6.92778379,24.7614817 C8.15832008,24.7614817 9.17317369,24.3460062 9.97164359,23.5152891 C10.4941425,22.9717594 10.8133435,22.3338247 11.0495896,21.3612664 C11.3947287,19.9407517 11.412488,19.5843963 11.412488,14.0542269 L11.412488,8.92784919 L13.0278882,8.92784919 L14.6430547,8.92784919 L14.6430547,17.8084609 L14.6430547,26.6888389 L13.0937848,26.6888389 L11.5445148,26.6888389 L11.5445148,25.3811896 C11.5445148,24.6614684 11.5197452,24.073073 11.4893673,24.073073 C11.4592232,24.073073 11.3183167,24.2492645 11.1762419,24.4647135 C10.3922599,25.6541229 9.13601925,26.5395201 7.6549826,26.9463495 C7.12827754,27.0909948 6.84319318,27.122541 5.87414001,27.1435718 C5.03360848,27.1615649 4.60387885,27.1412351 4.2916881,27.0685619 Z M99.3252627,29.7661143 L99.0876145,29.5385142 L99.7989234,28.7636455 C100.518411,27.9796635 101.41853,27.216946 102.202278,26.7273954 C102.736461,26.3934728 102.711224,26.4182424 102.596022,26.3420642 C102.434552,26.235508 101.533031,25.9424787 101.157047,25.8742454 L100.80443,25.8102182 L100.479621,26.1114262 C99.8033632,26.7386118 99.1937033,26.9192432 97.7516905,26.9199442 C96.4043164,26.9206452 95.3861913,26.7252923 93.9941851,26.199522 C93.4043876,25.9765953 93.4025182,25.9751933 93.5985721,25.8920047 C93.8621583,25.7800741 95.181024,25.4741926 95.9839338,25.338427 C96.859984,25.1907439 99.2226791,25.1344281 100.100599,25.2405169 C101.055398,25.3559527 101.906445,25.5475667 102.710289,25.8284449 L103.397062,26.0684299 L104.039904,25.8347542 C104.788835,25.562522 105.712087,25.3545506 106.682075,25.2388811 C107.562098,25.1339607 109.911707,25.1937817 110.806451,25.3438015 C111.618708,25.4798008 112.913973,25.7791394 113.179428,25.8920047 C113.375482,25.9751933 113.373846,25.9765953 112.783582,26.199522 C111.398586,26.7227219 110.381162,26.9176074 109.02631,26.9190095 C107.589905,26.9204115 107.035159,26.7577732 106.288098,26.1156324 L105.925667,25.803909 L105.596651,25.8726097 C105.186083,25.9583686 104.312136,26.2535011 104.180343,26.3509438 C104.116783,26.3979127 104.107202,26.4353008 104.153704,26.4553969 C104.335971,26.5346129 105.576555,27.4295909 105.974038,27.768187 C106.528317,28.2406793 107.608833,29.4153671 107.608833,29.5450571 C107.608833,29.6829258 107.178402,30.0082024 107.031654,29.9815633 C106.964122,29.9689449 106.677168,29.6864309 106.393719,29.3532094 C105.638713,28.4647743 104.488795,27.4431441 103.636112,26.9031195 L103.388416,26.7460895 L103.042576,26.9680814 C102.152505,27.5389511 100.861213,28.7183125 100.191499,29.5721635 C99.8038306,30.0659203 99.6701681,30.0958308 99.3252627,29.7661143 Z" id="logo-unicef"></path>
            </g>
        </g>
    </g>
</svg>