<?xml version="1.0" encoding="UTF-8"?>
<svg width="95px" height="25px" viewBox="0 0 95 25" version="1.1" xmlns="http://www.w3.org/2000/svg" xmlns:xlink="http://www.w3.org/1999/xlink">
    <!-- Generator: Sketch 48.1 (47250) - http://www.bohemiancoding.com/sketch -->
    <title>logo-evs</title>
    <desc>Created with Sketch.</desc>
    <defs></defs>
    <g id="EVS_Thanks_share" stroke="none" stroke-width="1" fill="none" fill-rule="evenodd" transform="translate(-593.000000, -40.000000)">
        <g id="logo-evs" transform="translate(593.000000, 40.000000)" fill="#FFFFFF">
            <polygon id="Fill-1" points="0 5 26 5 26 0 0 0"></polygon>
            <polygon id="Fill-2" points="0 15 26 15 26 10 0 10"></polygon>
            <polygon id="Fill-3" points="0 25 26 25 26 20 0 20"></polygon>
            <polygon id="Fill-4" points="57.9739155 0 46.9022493 19.0876195 36.0268335 0 30 0 43.8184222 24 49.9343923 24 64 0"></polygon>
            <polygon id="Fill-5" points="69 0 69 5.03316366 69 10.0678698 69 15.1002622 73.965822 15.1002622 90.0212442 15.1002622 90.0212442 19.8958815 69 19.8958815 69 25 90.0212442 25 94.9870662 25 94.9870662 19.8958815 94.9870662 15.1002622 94.9870662 10.0678698 90.0212442 10.0678698 73.965822 10.0678698 73.965822 5.03316366 95 5.03316366 95 0"></polygon>
        </g>
    </g>
</svg>